<?xml version="1.0" encoding="utf-8"?>
<!-- Generator: Adobe Illustrator 16.0.0, SVG Export Plug-In . SVG Version: 6.00 Build 0)  -->
<!DOCTYPE svg PUBLIC "-//W3C//DTD SVG 1.1//EN" "http://www.w3.org/Graphics/SVG/1.1/DTD/svg11.dtd">
<svg version="1.1" id="Layer_1" xmlns="http://www.w3.org/2000/svg" xmlns:xlink="http://www.w3.org/1999/xlink" x="0px" y="0px"
	 width="841.89px" height="595.28px" viewBox="0 0 841.89 595.28" enable-background="new 0 0 841.89 595.28" xml:space="preserve">
<g>
	<g>
		<path fill="#6DBFCE" d="M233,233c-1.952,0.723-3.968,1.337-6.046,1.846c-2.079,0.51-4.179,0.891-6.3,1.146
			c-2.122,0.254-4.223,0.381-6.301,0.381c-6.363,0-12.049-0.986-17.054-2.959c-5.006-1.973-9.238-4.783-12.696-8.432
			c-3.458-3.648-6.099-8.019-7.923-13.11c-1.825-5.091-2.736-10.775-2.736-17.054c0-6.533,0.986-12.451,2.959-17.755
			c1.973-5.303,4.751-9.821,8.336-13.555c3.584-3.732,7.891-6.628,12.918-8.687c5.027-2.057,10.596-3.086,16.705-3.086
			c3.139,0,6.087,0.276,8.846,0.827c2.757,0.552,5.207,1.2,7.35,1.941c2.143,0.743,3.945,1.549,5.41,2.418
			c1.463,0.87,2.471,1.581,3.021,2.132c0.552,0.552,0.934,1.188,1.146,1.909c0.211,0.722,0.318,1.761,0.318,3.118
			c0,0.807-0.043,1.518-0.128,2.132c-0.085,0.616-0.212,1.125-0.382,1.527c-0.17,0.404-0.382,0.69-0.637,0.859
			c-0.254,0.17-0.53,0.254-0.826,0.254c-0.51,0-1.359-0.403-2.547-1.209c-1.188-0.805-2.778-1.696-4.771-2.673
			c-1.995-0.975-4.382-1.866-7.16-2.672c-2.779-0.806-6.077-1.209-9.895-1.209c-4.541,0-8.614,0.827-12.219,2.481
			c-3.606,1.655-6.661,3.946-9.164,6.873c-2.504,2.927-4.423,6.407-5.759,10.437c-1.336,4.031-2.005,8.4-2.005,13.109
			c0,5.261,0.732,9.928,2.196,14s3.489,7.509,6.078,10.31c2.587,2.8,5.673,4.922,9.259,6.363c3.584,1.443,7.519,2.164,11.804,2.164
			c2.547,0,5.123-0.308,7.732-0.924c2.609-0.613,5.037-1.537,7.287-2.768"/>
	</g>
	
		<line fill="none" stroke="#6DBFCE" stroke-width="9.6384" stroke-linecap="round" stroke-miterlimit="10" x1="247.508" y1="191.975" x2="212.149" y2="266.484"/>
</g>
</svg>
