<?xml version="1.0" encoding="utf-8"?>
<!-- Generator: Adobe Illustrator 16.0.0, SVG Export Plug-In . SVG Version: 6.00 Build 0)  -->
<!DOCTYPE svg PUBLIC "-//W3C//DTD SVG 1.1//EN" "http://www.w3.org/Graphics/SVG/1.1/DTD/svg11.dtd">
<svg version="1.1" id="Layer_1" xmlns="http://www.w3.org/2000/svg" xmlns:xlink="http://www.w3.org/1999/xlink" x="0px" y="0px"
	 width="1024px" height="1024px" viewBox="0 0 1024 1024" enable-background="new 0 0 1024 1024" xml:space="preserve">
<g>
	<g>
		<path fill="#6DBFCE" d="M678.768,692.539c-16.457,6.092-33.449,11.27-50.969,15.559c-17.526,4.298-35.225,7.509-53.105,9.667
			c-17.889,2.139-35.598,3.209-53.117,3.209c-53.642,0-101.572-8.314-143.767-24.944c-42.205-16.629-77.88-40.323-107.027-71.079
			c-29.15-30.758-51.415-67.598-66.789-110.516c-15.382-42.918-23.067-90.838-23.067-143.77c0-55.075,8.314-104.963,24.945-149.678
			c16.629-44.703,40.05-82.789,70.275-114.268c30.218-31.464,66.522-55.873,108.904-73.227
			C427.431,16.15,474.373,7.473,525.874,7.473c26.46,0,51.312,2.331,74.569,6.974c23.241,4.654,43.896,10.113,61.959,16.366
			c18.061,6.261,33.258,13.056,45.605,20.384c12.334,7.334,20.829,13.327,25.473,17.97c4.652,4.651,7.87,10.019,9.666,16.094
			c1.777,6.088,2.682,14.843,2.682,26.287c0,6.8-0.361,12.793-1.078,17.972c-0.714,5.19-1.786,9.479-3.218,12.876
			c-1.434,3.403-3.221,5.815-5.367,7.244c-2.142,1.431-4.472,2.144-6.966,2.144c-4.297,0-11.459-3.395-21.469-10.196
			c-10.012-6.788-23.422-14.299-40.226-22.532c-16.817-8.22-36.938-15.732-60.36-22.528c-23.428-6.792-51.23-10.192-83.411-10.192
			c-38.28,0-72.614,6.974-103.009,20.919c-30.403,13.951-56.153,33.263-77.249,57.94c-21.109,24.676-37.285,54.008-48.552,87.979
			c-11.266,33.984-16.902,70.812-16.902,110.512c0,44.35,6.171,83.693,18.512,118.025c12.341,34.334,29.414,63.3,51.234,86.911
			c21.809,23.604,47.827,41.492,78.057,53.642c30.216,12.168,63.382,18.244,99.505,18.244c21.471,0,43.188-2.594,65.186-7.787
			c21.998-5.171,42.463-12.958,61.431-23.331"/>
	</g>
	
		<line fill="none" stroke="#6DBFCE" stroke-width="81.2523" stroke-linecap="round" stroke-miterlimit="10" x1="801.069" y1="346.691" x2="502.992" y2="974.813"/>
</g>
</svg>
